<?xml version="1.0" standalone="no"?>
<!DOCTYPE svg PUBLIC "-//W3C//DTD SVG 20010904//EN"
 "http://www.w3.org/TR/2001/REC-SVG-20010904/DTD/svg10.dtd">
<svg version="1.0" xmlns="http://www.w3.org/2000/svg"
 width="191.000000pt" height="191.000000pt" viewBox="0 0 191.000000 191.000000"
 preserveAspectRatio="xMidYMid meet">
<metadata>
Created by potrace 1.11, written by Peter Selinger 2001-2013
</metadata>
<g transform="translate(0.000000,191.000000) scale(0.100000,-0.100000)"
fill="#000000" stroke="none">
<path d="M762 1865 c-36 -16 -92 -72 -92 -92 0 -21 -65 -15 -105 8 -100 59
-235 2 -265 -113 -6 -21 -19 -42 -28 -45 -36 -13 -83 -56 -102 -93 -40 -78
-21 -162 50 -223 l43 -37 62 -602 62 -602 32 -28 31 -28 521 0 520 0 24 24
c13 13 26 39 29 57 4 19 33 298 66 621 33 323 64 596 68 605 4 10 20 37 35 60
36 53 39 117 7 168 -12 19 -26 35 -31 35 -5 0 -20 18 -34 41 -15 22 -40 49
-58 59 -18 11 -41 35 -51 55 -56 104 -197 120 -289 34 -27 -27 -49 -39 -69
-39 -15 0 -28 4 -28 10 0 18 -86 60 -124 60 -27 0 -48 8 -70 27 -63 53 -138
67 -204 38z m146 -93 c15 -15 32 -36 37 -46 9 -15 14 -16 38 -5 42 19 103 -3
128 -46 19 -32 22 -33 51 -23 23 8 40 8 64 -1 36 -13 54 -8 54 14 0 27 51 74
87 81 35 7 103 -16 103 -33 0 -5 -23 -18 -50 -30 -41 -18 -54 -30 -70 -65 -11
-24 -20 -53 -20 -66 0 -21 4 -23 37 -20 32 3 38 7 45 36 9 35 53 62 101 62 32
0 71 -32 87 -70 7 -16 18 -30 26 -30 18 0 44 -40 44 -68 0 -14 -13 -36 -30
-52 -16 -15 -30 -35 -30 -44 0 -15 -62 -16 -664 -16 l-663 0 -27 26 c-20 21
-26 37 -26 70 0 62 39 104 102 111 l47 5 -6 48 c-5 42 -2 51 23 79 41 46 96
52 147 17 23 -16 52 -26 73 -26 19 0 51 -7 71 -15 19 -8 37 -15 39 -15 2 0 4
16 4 35 0 41 22 89 47 104 10 6 37 11 61 11 35 0 49 -6 70 -28z m-108 -669 l0
-168 -37 -20 c-63 -35 -78 -64 -81 -169 -5 -118 16 -167 82 -197 l43 -19 6
-136 c4 -76 7 -177 7 -226 l0 -88 -69 0 -69 0 -6 73 c-8 90 -66 1052 -66 1089
l0 28 95 0 95 0 0 -167z m523 135 c-1 -18 -16 -271 -33 -563 -17 -292 -33
-545 -36 -563 l-5 -33 -67 3 -67 3 1 33 c0 17 1 117 2 221 l2 189 47 23 c70
36 85 71 81 191 -3 109 -17 138 -81 173 l-37 20 0 91 c0 50 3 125 6 167 l7 77
91 0 92 0 -3 -32z m-174 -402 c18 -17 21 -30 21 -103 0 -124 1 -123 -203 -123
-206 0 -207 0 -207 124 0 123 5 126 216 123 134 -2 155 -4 173 -21z"/>
<path d="M791 1622 c-19 -9 -43 -29 -54 -44 -27 -37 -34 -116 -13 -156 19 -38
23 -38 51 -12 18 17 21 29 17 69 -4 42 -1 50 19 65 55 38 126 3 115 -58 -5
-26 -1 -37 18 -55 l24 -22 16 22 c9 13 16 31 16 40 0 43 67 52 85 12 8 -18 18
-23 47 -23 46 0 50 18 13 72 -28 42 -79 63 -126 53 -21 -5 -36 -2 -48 9 -24
22 -86 46 -118 46 -15 0 -43 -8 -62 -18z"/>
</g>
</svg>
